<svg width="120" height="120" viewBox="0 0 120 120" fill="none" xmlns="http://www.w3.org/2000/svg">
<path d="M60.5157 119.302L60.3328 114.492L60.871 114.472L62.7651 117.63L64.4208 114.338L64.9386 114.319L65.1215 119.129L64.5628 119.15L64.4201 115.397L63.0053 118.204L62.5556 118.221L60.9316 115.528L61.0744 119.281L60.5157 119.302Z" fill="#111111"/>
<path d="M69.4417 118.552L69.1313 116.638L66.9883 114.07L67.6345 113.966L69.3383 116.083L70.2866 113.541L70.9193 113.439L69.6967 116.547L70.0072 118.461L69.4417 118.552Z" fill="#111111"/>
<path d="M77.6475 116.682L76.1393 112.108L77.61 111.629C77.8994 111.535 78.1655 111.5 78.4083 111.526C78.6511 111.551 78.8587 111.633 79.0312 111.772C79.2038 111.911 79.329 112.098 79.4069 112.334C79.4805 112.558 79.4909 112.771 79.4382 112.974C79.3854 113.176 79.2753 113.357 79.1078 113.516C79.3953 113.518 79.6435 113.596 79.8526 113.752C80.0617 113.907 80.2116 114.122 80.3022 114.397C80.3886 114.659 80.3985 114.907 80.332 115.14C80.2654 115.373 80.1318 115.581 79.9311 115.763C79.7304 115.945 79.4702 116.088 79.1506 116.192L77.6475 116.682ZM76.8428 112.414L77.325 113.877L78.2256 113.583C78.5107 113.49 78.7082 113.357 78.8183 113.183C78.9285 113.009 78.9446 112.804 78.8667 112.568C78.7888 112.331 78.6512 112.175 78.4539 112.099C78.2567 112.023 78.0198 112.03 77.7434 112.121L76.8428 112.414ZM78.0324 116.022L78.9783 115.713C79.3023 115.608 79.5309 115.452 79.6641 115.247C79.7974 115.042 79.8208 114.808 79.7344 114.547C79.6466 114.28 79.4887 114.102 79.2606 114.012C79.0325 113.923 78.7543 113.931 78.426 114.038L77.4801 114.347L78.0324 116.022ZM82.9124 114.805L82.679 109.621L83.2311 109.371L87.0133 112.946L86.4549 113.199L85.3936 112.175L83.371 113.092L83.4521 114.56L82.9124 114.805ZM83.3394 112.533L84.9835 111.788L83.2087 110.074L83.3394 112.533ZM89.3805 111.67L86.9287 107.519L88.2632 106.74C88.5258 106.586 88.7784 106.496 89.0211 106.47C89.2638 106.443 89.4843 106.48 89.6825 106.579C89.8808 106.678 90.0432 106.835 90.1698 107.049C90.2896 107.252 90.3453 107.458 90.3371 107.667C90.3289 107.876 90.26 108.076 90.1304 108.267C90.4116 108.208 90.6709 108.232 90.9085 108.34C91.146 108.447 91.3385 108.626 91.4858 108.875C91.6262 109.113 91.6889 109.353 91.6738 109.595C91.6586 109.837 91.5725 110.068 91.4153 110.288C91.2581 110.509 91.0344 110.704 90.7444 110.873L89.3805 111.67ZM87.6815 107.669L88.4654 108.996L89.2826 108.519C89.5412 108.368 89.7058 108.196 89.7762 108.002C89.8466 107.809 89.8185 107.606 89.6919 107.391C89.5653 107.177 89.3974 107.053 89.1884 107.021C88.9794 106.988 88.7495 107.045 88.4987 107.192L87.6815 107.669ZM89.6153 110.943L90.4737 110.441C90.7676 110.27 90.9578 110.07 91.0441 109.841C91.1304 109.612 91.1034 109.379 90.9629 109.141C90.8202 108.9 90.6278 108.759 90.3857 108.72C90.1436 108.68 89.8737 108.748 89.5758 108.921L88.7175 109.423L89.6153 110.943Z" fill="#111111"/>
<path d="M95.3753 107.803L94.2192 106.242L91.1326 104.932L91.6597 104.546L94.1481 105.654L93.823 102.962L94.3391 102.584L94.6804 105.904L95.8365 107.465L95.3753 107.803Z" fill="#111111"/>
<path d="M101.82 102.411L98.386 99.0186L99.3278 98.0759C99.5872 97.8161 99.8542 97.6355 100.129 97.5339C100.403 97.4323 100.671 97.4114 100.931 97.4713C101.192 97.5311 101.435 97.6725 101.661 97.8955C101.88 98.1121 102.017 98.3529 102.073 98.618C102.128 98.8831 102.102 99.1565 101.994 99.4381C101.885 99.7197 101.698 99.9936 101.432 100.26C101.362 100.33 101.283 100.403 101.194 100.479C101.106 100.554 101.011 100.63 100.908 100.707L102.224 102.007L101.82 102.411ZM99.1524 98.9729L100.546 100.349C100.635 100.285 100.726 100.213 100.817 100.135C100.909 100.056 100.989 99.9815 101.06 99.911C101.345 99.6256 101.504 99.343 101.537 99.0633C101.57 98.7835 101.472 98.5306 101.243 98.3044C101.094 98.1579 100.933 98.0657 100.76 98.028C100.586 97.9902 100.407 98.0052 100.225 98.0729C100.042 98.1406 99.8619 98.2627 99.6858 98.439L99.1524 98.9729Z" fill="#111111"/>
<path d="M105.838 98.1267L102.097 95.0719L102.46 94.6318L105.795 97.3553L107.163 95.6997L107.568 96.031L105.838 98.1267Z" fill="#111111"/>
<path d="M109.232 93.7325L105.219 91.0393L106.78 88.7411L107.203 89.0256L105.964 90.8518L107.252 91.7167L108.385 90.0478L108.815 90.336L107.682 92.0049L109.123 92.9722L110.401 91.0898L110.83 91.3781L109.232 93.7325Z" fill="#111111"/>
<path d="M112.153 89.1416L108.77 85.19L109.052 84.6555L114.245 85.1722L113.96 85.7126L112.49 85.5514L111.458 87.5091L112.428 88.6191L112.153 89.1416ZM111.088 87.0866L111.927 85.4953L109.468 85.2244L111.088 87.0866ZM115.887 81.5934C115.793 81.8284 115.664 82.0303 115.501 82.199C115.337 82.3677 115.15 82.4953 114.939 82.5818C114.728 82.6682 114.506 82.7039 114.272 82.6889L114.314 82.1286C114.567 82.1319 114.79 82.0709 114.982 81.9454C115.174 81.8199 115.317 81.6417 115.41 81.4109C115.482 81.2304 115.511 81.0531 115.495 80.879C115.48 80.7048 115.424 80.5512 115.328 80.4182C115.232 80.2852 115.104 80.1868 114.944 80.123C114.737 80.0408 114.539 80.0436 114.349 80.1313C114.16 80.219 113.982 80.3833 113.817 80.6242L113.642 80.876C113.384 81.2504 113.108 81.4984 112.814 81.6202C112.521 81.7419 112.22 81.7415 111.912 81.619C111.726 81.5451 111.57 81.443 111.444 81.3125C111.318 81.182 111.223 81.0311 111.16 80.8599C111.096 80.6887 111.067 80.5081 111.073 80.318C111.078 80.1279 111.12 79.9363 111.197 79.7432C111.289 79.5166 111.414 79.3242 111.573 79.166C111.732 79.0077 111.915 78.8896 112.123 78.8115C112.33 78.7334 112.548 78.7032 112.776 78.7208L112.734 79.281C112.477 79.276 112.257 79.3298 112.075 79.4423C111.892 79.5547 111.758 79.718 111.672 79.932C111.606 80.0957 111.581 80.2535 111.596 80.4054C111.61 80.5573 111.659 80.6912 111.743 80.807C111.826 80.9228 111.941 81.0101 112.089 81.0688C112.283 81.146 112.47 81.1401 112.65 81.0511C112.831 80.9621 113.017 80.7808 113.211 80.5072L113.385 80.2554C113.638 79.8936 113.914 79.6588 114.212 79.5509C114.51 79.443 114.815 79.4512 115.127 79.5754C115.326 79.6543 115.494 79.7636 115.631 79.9033C115.768 80.043 115.87 80.2029 115.937 80.3829C116.004 80.5629 116.034 80.7562 116.027 80.9626C116.02 81.1691 115.973 81.3794 115.887 81.5934Z" fill="#111111"/>
<path d="M117.274 77.4088L112.63 76.0479L113.419 73.3882L113.909 73.5319L113.283 75.6454L114.774 76.0824L115.347 74.151L115.844 74.2967L115.271 76.2281L116.939 76.7168L117.585 74.5383L118.082 74.684L117.274 77.4088Z" fill="#111111"/>
<path d="M119.717 66.3063C119.678 66.6339 119.58 66.9284 119.423 67.1896C119.265 67.4509 119.063 67.6704 118.815 67.8481C118.567 68.0258 118.284 68.1527 117.966 68.2287C117.648 68.3048 117.308 68.3214 116.947 68.2785C116.654 68.2437 116.382 68.1739 116.131 68.0691C115.88 67.9642 115.656 67.8306 115.458 67.6683C115.26 67.506 115.094 67.3225 114.961 67.1178C114.828 66.9131 114.733 66.6913 114.677 66.4525C114.621 66.2137 114.608 65.9664 114.639 65.7106C114.673 65.4234 114.755 65.1611 114.884 64.9238C115.014 64.6865 115.18 64.4832 115.383 64.3139C115.587 64.1446 115.821 64.0233 116.086 63.9501L116.22 64.4917C115.919 64.5971 115.677 64.7606 115.492 64.9823C115.307 65.2039 115.197 65.465 115.161 65.7657C115.132 66.0081 115.157 66.2375 115.236 66.454C115.316 66.6705 115.439 66.8661 115.606 67.0406C115.772 67.2152 115.975 67.3598 116.213 67.4745C116.451 67.5892 116.716 67.664 117.01 67.6988C117.299 67.7331 117.569 67.723 117.82 67.6686C118.072 67.6143 118.296 67.5213 118.492 67.3899C118.689 67.2585 118.848 67.0942 118.97 66.897C119.092 66.6998 119.168 66.4778 119.198 66.231C119.235 65.9213 119.191 65.6373 119.067 65.379C118.942 65.1207 118.744 64.8981 118.474 64.7113L118.732 64.2162C118.972 64.3539 119.172 64.5301 119.331 64.7448C119.491 64.9594 119.604 65.2004 119.67 65.4677C119.737 65.7351 119.752 66.0146 119.717 66.3063Z" fill="#111111"/>
<path d="M119.946 61.5223L115.106 61.4404L115.116 60.871L119.431 60.944L119.468 58.802L119.992 58.8109L119.946 61.5223Z" fill="#111111"/>
<path d="M119.872 55.9797L115.039 56.2528L115.006 55.6843L119.839 55.4111L119.872 55.9797Z" fill="#111111"/>
<path d="M119.348 50.2757C119.397 50.602 119.38 50.9118 119.297 51.2051C119.215 51.4983 119.078 51.7631 118.886 51.9995C118.694 52.2359 118.454 52.4324 118.167 52.5892C117.881 52.7459 117.557 52.8509 117.198 52.9041C116.906 52.9474 116.625 52.9513 116.355 52.9159C116.086 52.8804 115.834 52.8103 115.6 52.7056C115.366 52.6009 115.157 52.4673 114.974 52.3047C114.792 52.1422 114.641 51.9531 114.524 51.7374C114.407 51.5217 114.329 51.2865 114.291 51.0316C114.248 50.7455 114.257 50.4711 114.319 50.2083C114.381 49.9456 114.487 49.7059 114.639 49.4892C114.79 49.2726 114.984 49.0942 115.22 48.9541L115.493 49.4415C115.231 49.622 115.04 49.8434 114.921 50.1055C114.801 50.3677 114.764 50.6485 114.809 50.948C114.845 51.1894 114.93 51.4042 115.064 51.5923C115.198 51.7803 115.369 51.9367 115.576 52.0614C115.783 52.1861 116.016 52.2726 116.276 52.3209C116.536 52.3692 116.812 52.3717 117.105 52.3285C117.392 52.2858 117.65 52.2054 117.878 52.087C118.107 51.9687 118.298 51.8204 118.453 51.6421C118.608 51.4638 118.718 51.2635 118.783 51.0413C118.849 50.8191 118.863 50.5851 118.826 50.3392C118.78 50.0307 118.663 49.7683 118.474 49.5517C118.285 49.3352 118.036 49.1723 117.725 49.0629L117.843 48.5176C118.111 48.5876 118.351 48.7052 118.562 48.8705C118.772 49.0357 118.945 49.2386 119.08 49.4791C119.215 49.7196 119.304 49.9851 119.348 50.2757Z" fill="#111111"/>
<path d="M118.295 45.6088L113.617 46.8454L113.47 46.295L115.585 45.7359L112.899 44.159L112.706 43.4383L115.516 45.1087L117.322 41.9658L117.534 42.7586L115.849 45.6663L118.148 45.0584L118.295 45.6088Z" fill="#111111"/>
<path d="M114.658 35.1151L110.725 36.8809L111.333 38.2217L110.855 38.4365L109.402 35.2357L109.88 35.0209L110.489 36.3618L114.423 34.5961L114.658 35.1151Z" fill="#111111"/>
<path d="M112.463 30.7472L108.286 33.1813L107.997 32.6899L109.773 31.6546L108.415 29.3501L106.638 30.3854L106.349 29.8941L110.525 27.4601L110.815 27.9514L108.868 29.0861L110.226 31.3906L112.173 30.2559L112.463 30.7472Z" fill="#111111"/>
<path d="M108.789 24.9495L104.843 27.7376L104.511 27.2734L108.457 24.4852L108.789 24.9495Z" fill="#111111"/>
<path d="M105.782 20.9901C105.946 21.1836 106.064 21.3918 106.137 21.6144C106.21 21.8371 106.235 22.0614 106.212 22.2872C106.19 22.513 106.117 22.725 105.993 22.923L105.516 22.6226C105.638 22.402 105.689 22.1778 105.668 21.9499C105.647 21.722 105.556 21.513 105.395 21.3229C105.269 21.1743 105.125 21.0659 104.963 20.9976C104.801 20.9293 104.639 20.9059 104.476 20.9273C104.313 20.9488 104.165 21.0148 104.033 21.1255C103.863 21.2682 103.772 21.4433 103.761 21.6509C103.749 21.8584 103.811 22.0914 103.947 22.3499L104.088 22.6217C104.299 23.0245 104.389 23.3834 104.359 23.6984C104.329 24.0134 104.187 24.2772 103.933 24.4898C103.78 24.6179 103.616 24.7066 103.441 24.7559C103.265 24.8052 103.087 24.8173 102.905 24.7923C102.724 24.7672 102.55 24.7075 102.384 24.6132C102.217 24.519 102.067 24.3923 101.932 24.2333C101.774 24.0467 101.662 23.8463 101.597 23.6323C101.531 23.4182 101.513 23.2018 101.541 22.9828C101.57 22.7639 101.645 22.5587 101.768 22.367L102.246 22.6674C102.12 22.8909 102.064 23.109 102.078 23.3219C102.092 23.5348 102.174 23.7294 102.323 23.9057C102.438 24.0405 102.566 24.1371 102.707 24.1957C102.849 24.2542 102.991 24.2743 103.133 24.2559C103.275 24.2374 103.406 24.1772 103.528 24.0753C103.688 23.9413 103.771 23.7744 103.777 23.5744C103.783 23.3744 103.71 23.1252 103.558 22.8269L103.417 22.5551C103.215 22.1627 103.136 21.8104 103.181 21.4982C103.225 21.186 103.376 20.9222 103.634 20.7067C103.797 20.5698 103.973 20.4741 104.161 20.4195C104.35 20.3649 104.54 20.3506 104.731 20.3765C104.923 20.4023 105.108 20.467 105.288 20.5705C105.468 20.6739 105.632 20.8138 105.782 20.9901ZM100.208 15.4081L97.0264 19.0359L95.86 18.0243C95.6305 17.8253 95.4646 17.6155 95.3625 17.395C95.2604 17.1745 95.2252 16.955 95.2569 16.7367C95.2886 16.5183 95.3866 16.3154 95.5509 16.1281C95.7063 15.9509 95.885 15.8331 96.0872 15.7745C96.2894 15.7159 96.5021 15.7175 96.7254 15.7792C96.5796 15.5328 96.5204 15.2806 96.5478 15.0225C96.5751 14.7643 96.6844 14.5263 96.8756 14.3083C97.0579 14.1005 97.2669 13.9653 97.5026 13.9029C97.7383 13.8404 97.9861 13.8484 98.246 13.9269C98.5059 14.0053 98.7626 14.1545 99.0161 14.3743L100.208 15.4081ZM96.9309 18.2783L97.9482 17.1185L97.2339 16.4991C97.0078 16.303 96.7915 16.2024 96.585 16.1972C96.3784 16.192 96.193 16.2831 96.0287 16.4704C95.8644 16.6578 95.7998 16.8552 95.835 17.0626C95.8702 17.27 95.9974 17.4688 96.2167 17.6589L96.9309 18.2783ZM99.4405 15.417L98.6903 14.7664C98.4334 14.5436 98.1822 14.4277 97.9367 14.4188C97.6912 14.4098 97.4774 14.5092 97.2952 14.717C97.1099 14.9282 97.0368 15.1542 97.0759 15.395C97.115 15.6358 97.2648 15.8691 97.5251 16.0949L98.2753 16.7455L99.4405 15.417ZM94.0448 10.4085C94.2831 10.5745 94.4714 10.7621 94.6097 10.9715C94.748 11.1809 94.8352 11.4058 94.8713 11.6461C94.9074 11.8864 94.8907 12.1327 94.8212 12.3851C94.7518 12.6374 94.6297 12.8876 94.455 13.1357L92.7539 15.5515L92.2847 15.2249L93.9741 12.8257C94.1514 12.5739 94.2599 12.3253 94.2996 12.0798C94.3393 11.8343 94.3124 11.6046 94.2189 11.3905C94.1255 11.1765 93.9652 10.9904 93.7381 10.8323C93.511 10.6742 93.2803 10.588 93.0461 10.5739C92.8118 10.5598 92.5855 10.6133 92.3671 10.7344C92.1487 10.8554 91.9508 11.0418 91.7736 11.2936L90.0841 13.6928L89.615 13.3661L91.3161 10.9503C91.4908 10.7022 91.6858 10.5042 91.901 10.3561C92.1163 10.208 92.3436 10.1097 92.5831 10.0612C92.8225 10.0128 93.0664 10.017 93.3148 10.0741C93.5632 10.1312 93.8065 10.2426 94.0448 10.4085Z" fill="#111111"/>
<path d="M88.6953 7.29082L86.6237 11.0556L87.9216 11.7618L87.6696 12.2198L84.5713 10.534L84.8233 10.0761L86.1212 10.7823L88.1929 7.01746L88.6953 7.29082Z" fill="#111111"/>
<path d="M83.0719 4.60523L81.4066 8.56444L82.7716 9.13209L82.569 9.6137L79.3107 8.25867L79.5132 7.77706L80.8782 8.34471L82.5435 4.3855L83.0719 4.60523Z" fill="#111111"/>
<path d="M78.2056 5.33732C78.1221 5.61912 78.0066 5.87272 77.8592 6.09812C77.7119 6.32351 77.5404 6.51828 77.3448 6.68243C77.1493 6.84659 76.9362 6.97381 76.7057 7.0641C76.4752 7.15439 76.2328 7.20469 75.9786 7.215C75.7244 7.22532 75.4643 7.1915 75.1983 7.11355C74.8713 7.01772 74.5882 6.86994 74.3488 6.67022C74.1095 6.47049 73.9209 6.23145 73.783 5.9531C73.6452 5.67474 73.5647 5.37079 73.5415 5.04123C73.5184 4.71167 73.5595 4.36914 73.6649 4.01364C73.7484 3.73184 73.8638 3.47824 74.0112 3.25285C74.1586 3.02746 74.33 2.83268 74.5256 2.66853C74.7212 2.50438 74.9342 2.37716 75.1647 2.28687C75.3953 2.19658 75.6376 2.14628 75.8919 2.13596C76.1461 2.12565 76.4062 2.15947 76.6721 2.23741C76.9991 2.33325 77.2823 2.48103 77.5216 2.68075C77.761 2.88047 77.9496 3.11951 78.0874 3.39787C78.2253 3.67622 78.3058 3.98018 78.3289 4.30974C78.3521 4.63929 78.311 4.98182 78.2056 5.33732ZM77.6412 5.17899C77.7247 4.89719 77.7593 4.62461 77.745 4.36125C77.7306 4.09788 77.6729 3.85713 77.5717 3.63899C77.4705 3.42086 77.3305 3.23375 77.1516 3.07768C76.9728 2.9216 76.7591 2.80715 76.5106 2.73431C76.2621 2.66148 76.0201 2.6424 75.7848 2.67709C75.5494 2.71177 75.3297 2.79346 75.1257 2.92215C74.9217 3.05084 74.7418 3.22195 74.5861 3.43548C74.4305 3.64901 74.3108 3.89668 74.2273 4.17848C74.1438 4.46028 74.1095 4.73177 74.1245 4.99297C74.1395 5.25417 74.1976 5.49383 74.2988 5.71197C74.4 5.93011 74.54 6.11722 74.7188 6.27329C74.8976 6.42936 75.1113 6.54382 75.3598 6.61665C75.6084 6.68949 75.8503 6.70856 76.0857 6.67388C76.3211 6.6392 76.5407 6.55751 76.7447 6.42881C76.9487 6.30012 77.1283 6.1301 77.2833 5.91873C77.4384 5.70737 77.5577 5.46079 77.6412 5.17899Z" fill="#111111"/>
<path d="M71.5293 1.11822L70.7108 5.86248L70.2135 5.77766L68.2083 1.52164L67.5524 5.32373L67.0013 5.22973L67.8198 0.485474L68.3171 0.570299L70.3223 4.82632L70.9782 1.02423L71.5293 1.11822Z" fill="#111111"/>
<path d="M60.1499 0.697742L60.3328 5.50787L59.7945 5.5281L57.9004 2.36989L56.2448 5.66156L55.727 5.68103L55.544 0.870905L56.1027 0.849905L56.2455 4.60315L57.6602 1.79545L58.1099 1.77855L59.7339 4.472L59.5912 0.718752L60.1499 0.697742Z" fill="#111111"/>
<path d="M51.2238 1.44789L51.5342 3.36215L53.6772 5.93024L53.0311 6.03385L51.3273 3.91724L50.379 6.45909L49.7462 6.56055L50.9688 3.45281L50.6584 1.53855L51.2238 1.44789Z" fill="#111111"/>
<path d="M43.018 3.31755L44.5262 7.89151L43.0556 8.371C42.7662 8.46535 42.5001 8.49978 42.2573 8.4743C42.0145 8.44881 41.8068 8.36668 41.6343 8.22791C41.4618 8.08914 41.3366 7.90165 41.2587 7.66544C41.185 7.4421 41.1746 7.22909 41.2273 7.02639C41.2801 6.82368 41.3902 6.6427 41.5578 6.48344C41.2703 6.48204 41.022 6.40364 40.8129 6.24825C40.6038 6.09286 40.4539 5.87774 40.3633 5.60287C40.2769 5.34089 40.267 5.09322 40.3336 4.85986C40.4001 4.62649 40.5337 4.41882 40.7344 4.23685C40.9351 4.05488 41.1953 3.91179 41.5149 3.80759L43.018 3.31755ZM43.8227 7.58578L43.3405 6.1234L42.4399 6.41701C42.1549 6.50995 41.9573 6.64333 41.8472 6.81717C41.7371 6.99101 41.721 7.19602 41.7989 7.43224C41.8768 7.66845 42.0143 7.82456 42.2116 7.90057C42.4089 7.97657 42.6457 7.96951 42.9221 7.87939L43.8227 7.58578ZM42.6331 3.97813L41.6872 4.28653C41.3633 4.39214 41.1347 4.54754 41.0014 4.7527C40.8681 4.95787 40.8447 5.19144 40.9311 5.45343C41.0189 5.71971 41.1769 5.89771 41.405 5.98744C41.6331 6.07718 41.9113 6.06853 42.2395 5.96151L43.1854 5.65312L42.6331 3.97813ZM37.7532 5.19483L37.9866 10.3791L37.4344 10.6293L33.6522 7.0535L34.2106 6.80042L35.272 7.82444L37.2945 6.90776L37.2134 5.43947L37.7532 5.19483ZM37.3261 7.46713L35.682 8.21228L37.4568 9.92625L37.3261 7.46713ZM31.2851 8.33031L33.7369 12.4808L32.4024 13.2603C32.1398 13.4136 31.8871 13.5036 31.6444 13.53C31.4017 13.5564 31.1813 13.5201 30.983 13.4209C30.7847 13.3218 30.6223 13.1651 30.4957 12.9507C30.376 12.7481 30.3202 12.5422 30.3284 12.3329C30.3366 12.1237 30.4055 11.9236 30.5352 11.7325C30.254 11.792 29.9946 11.7679 29.7571 11.6602C29.5195 11.5526 29.3271 11.3741 29.1797 11.1247C29.0393 10.8869 28.9767 10.647 28.9918 10.4049C29.0069 10.1628 29.0931 9.93165 29.2503 9.71141C29.4075 9.49116 29.6311 9.29635 29.9211 9.12695L31.2851 8.33031ZM32.9841 12.3308L32.2002 11.0038L31.383 11.4811C31.1243 11.6322 30.9598 11.8043 30.8893 11.9975C30.8189 12.1906 30.847 12.3943 30.9737 12.6087C31.1003 12.823 31.2681 12.9465 31.4771 12.979C31.6861 13.0116 31.916 12.9546 32.1669 12.8081L32.9841 12.3308ZM31.0502 9.05718L30.1919 9.55851C29.8979 9.7302 29.7078 9.93037 29.6215 10.159C29.5351 10.3877 29.5622 10.6209 29.7026 10.8586C29.8453 11.1002 30.0377 11.2407 30.2798 11.2802C30.5219 11.3196 30.7919 11.2524 31.0897 11.0784L31.9481 10.5771L31.0502 9.05718Z" fill="#111111"/>
<path d="M25.2902 12.1969L26.4463 13.7584L29.533 15.0683L29.0059 15.4542L26.5175 14.3461L26.8426 17.0379L26.3265 17.4158L25.9851 14.096L24.829 12.5346L25.2902 12.1969Z" fill="#111111"/>
<path d="M18.845 17.589L22.2795 20.9812L21.3378 21.924C21.0783 22.1837 20.8113 22.3644 20.5369 22.466C20.2624 22.5676 19.9949 22.5885 19.7343 22.5286C19.4738 22.4687 19.2306 22.3273 19.0049 22.1044C18.7856 21.8878 18.6482 21.6469 18.5927 21.3819C18.5371 21.1168 18.5635 20.8434 18.6719 20.5618C18.7802 20.2802 18.9673 20.0063 19.2332 19.7402C19.3036 19.6696 19.383 19.5966 19.4711 19.5212C19.5592 19.4458 19.6546 19.3696 19.7572 19.2926L18.4414 17.993L18.845 17.589ZM21.5131 21.0269L20.12 19.6509C20.0302 19.7151 19.9396 19.7866 19.8483 19.8652C19.757 19.9438 19.6761 20.0183 19.6056 20.0889C19.3205 20.3743 19.1615 20.6569 19.1287 20.9366C19.0959 21.2164 19.194 21.4693 19.423 21.6955C19.5713 21.842 19.7323 21.9341 19.906 21.9719C20.0797 22.0097 20.2581 21.9947 20.441 21.927C20.624 21.8593 20.8036 21.7372 20.9798 21.5609L21.5131 21.0269Z" fill="#111111"/>
<path d="M14.828 21.8732L18.5691 24.9281L18.2056 25.3682L14.8702 22.6446L13.5029 24.3003L13.0972 23.969L14.828 21.8732Z" fill="#111111"/>
<path d="M11.4339 26.2675L15.4462 28.9607L13.8859 31.2589L13.4621 30.9744L14.7019 29.1482L13.4134 28.2834L12.2805 29.9522L11.851 29.664L12.9839 27.9951L11.5429 27.0278L10.265 28.9102L9.83548 28.6219L11.4339 26.2675Z" fill="#111111"/>
<path d="M8.51266 30.8584L11.8955 34.8101L11.6139 35.3445L6.42089 34.8279L6.7057 34.2874L8.17564 34.4486L9.20729 32.4909L8.23735 31.3809L8.51266 30.8584ZM9.57738 32.9134L8.73877 34.5047L11.1978 34.7756L9.57738 32.9134ZM4.77813 38.4066C4.87264 38.1716 5.00155 37.9697 5.16486 37.801C5.32817 37.6323 5.51533 37.5047 5.72634 37.4182C5.93735 37.3318 6.15976 37.2961 6.39357 37.3112L6.35184 37.8714C6.09862 37.8681 5.87579 37.9291 5.68336 38.0546C5.49092 38.1801 5.34829 38.3583 5.25547 38.5891C5.1829 38.7696 5.15443 38.9469 5.17007 39.121C5.1857 39.2952 5.24142 39.4488 5.33724 39.5818C5.43306 39.7148 5.56115 39.8132 5.72153 39.877C5.92834 39.9592 6.12649 39.9564 6.31597 39.8687C6.50545 39.781 6.6829 39.6167 6.84831 39.3758L7.02301 39.124C7.28126 38.7496 7.55724 38.5016 7.85097 38.3798C8.14469 38.2581 8.4456 38.2585 8.7537 38.381C8.9394 38.4549 9.09536 38.557 9.22156 38.6875C9.34776 38.818 9.44252 38.9689 9.50585 39.1401C9.56917 39.3113 9.59809 39.4919 9.59263 39.682C9.58716 39.8721 9.54561 40.0637 9.46798 40.2568C9.37685 40.4834 9.25173 40.6758 9.09264 40.834C8.93355 40.9923 8.75019 41.1104 8.54255 41.1885C8.33492 41.2666 8.11715 41.2968 7.88925 41.2792L7.93098 40.719C8.18842 40.724 8.40829 40.6702 8.5906 40.5578C8.77291 40.4453 8.9071 40.282 8.99317 40.068C9.05899 39.9043 9.08451 39.7465 9.06972 39.5946C9.05493 39.4427 9.00596 39.3088 8.92281 39.193C8.83966 39.0772 8.72422 38.9899 8.5765 38.9312C8.38236 38.854 8.19519 38.8599 8.01499 38.9489C7.83479 39.0379 7.64806 39.2192 7.45479 39.4928L7.28009 39.7446C7.02691 40.1064 6.75135 40.3412 6.4534 40.4491C6.15546 40.557 5.85032 40.5488 5.53801 40.4246C5.33964 40.3457 5.17187 40.2364 5.03469 40.0967C4.89752 39.957 4.79537 39.7971 4.72825 39.6171C4.66112 39.4371 4.63114 39.2438 4.63829 39.0374C4.64544 38.8309 4.69205 38.6206 4.77813 38.4066Z" fill="#111111"/>
<path d="M3.39161 42.5912L8.03503 43.9521L7.24665 46.6118L6.75615 46.4681L7.38261 44.3546L5.89149 43.9176L5.31899 45.849L4.82195 45.7033L5.39445 43.7719L3.72673 43.2832L3.081 45.4617L2.58395 45.316L3.39161 42.5912Z" fill="#111111"/>
<path d="M0.94812 53.6937C0.987433 53.3661 1.08571 53.0716 1.24295 52.8104C1.40019 52.5491 1.60277 52.3296 1.85068 52.1519C2.0986 51.9742 2.38162 51.8473 2.69974 51.7713C3.01786 51.6952 3.35746 51.6786 3.71854 51.7215C4.01191 51.7563 4.28392 51.8261 4.53455 51.9309C4.78519 52.0358 5.00949 52.1694 5.20745 52.3317C5.40542 52.494 5.57108 52.6775 5.70445 52.8822C5.83781 53.087 5.93251 53.3087 5.98855 53.5475C6.04458 53.7863 6.05725 54.0336 6.02655 54.2894C5.99208 54.5766 5.91026 54.8389 5.78107 55.0762C5.65189 55.3135 5.48559 55.5168 5.28216 55.6861C5.07874 55.8554 4.84445 55.9767 4.57931 56.0499L4.44518 55.5083C4.74622 55.4029 4.989 55.2394 5.17353 55.0178C5.35805 54.7961 5.46836 54.535 5.50444 54.2343C5.53352 53.9919 5.50841 53.7625 5.4291 53.546C5.34979 53.3295 5.22677 53.1339 5.06003 52.9594C4.89329 52.7849 4.69092 52.6402 4.45291 52.5255C4.2149 52.4108 3.94921 52.336 3.65584 52.3012C3.36698 52.2669 3.09683 52.277 2.8454 52.3314C2.59397 52.3857 2.36996 52.4787 2.17337 52.6101C1.97678 52.7415 1.81744 52.9058 1.69536 53.103C1.57328 53.3002 1.49743 53.5222 1.46781 53.769C1.43065 54.0787 1.47439 54.3627 1.59904 54.621C1.72368 54.8793 1.92128 55.1019 2.19183 55.2887L1.9333 55.7838C1.69347 55.6461 1.49374 55.4699 1.3341 55.2552C1.17446 55.0406 1.06147 54.7996 0.995129 54.5323C0.928787 54.2649 0.913116 53.9854 0.94812 53.6937Z" fill="#111111"/>
<path d="M0.719487 58.4776L5.55969 58.5595L5.54994 59.1289L1.23466 59.0559L1.198 61.198L0.673071 61.1891L0.719487 58.4776Z" fill="#111111"/>
<path d="M0.793941 64.0204L5.62704 63.7472L5.65955 64.3158L0.826437 64.589L0.793941 64.0204Z" fill="#111111"/>
<path d="M1.31784 69.7243C1.26895 69.398 1.28572 69.0882 1.36817 68.7949C1.45061 68.5017 1.58787 68.2369 1.77994 68.0005C1.972 67.7641 2.2114 67.5676 2.49813 67.4109C2.78485 67.2542 3.10805 67.1492 3.46772 67.0959C3.75995 67.0526 4.04084 67.0487 4.3104 67.0842C4.57996 67.1196 4.83174 67.1897 5.06572 67.2944C5.2997 67.3991 5.50814 67.5328 5.69104 67.6953C5.87394 67.8579 6.02406 68.047 6.14139 68.2626C6.25872 68.4783 6.33647 68.7136 6.37465 68.9684C6.41752 69.2545 6.40808 69.5289 6.34635 69.7917C6.28461 70.0544 6.17806 70.2941 6.02669 70.5108C5.87532 70.7274 5.68146 70.9058 5.44509 71.0459L5.17217 70.5585C5.43464 70.378 5.62552 70.1566 5.74479 69.8945C5.86406 69.6324 5.90126 69.3515 5.85639 69.052C5.82022 68.8106 5.7352 68.5959 5.60132 68.4078C5.46744 68.2197 5.29695 68.0633 5.08985 67.9386C4.88275 67.8139 4.6492 67.7274 4.3892 67.6791C4.1292 67.6308 3.85309 67.6283 3.56086 67.6716C3.27313 67.7142 3.01519 67.7947 2.78705 67.913C2.55892 68.0313 2.36744 68.1797 2.21263 68.358C2.05781 68.5363 1.94765 68.7365 1.88214 68.9587C1.81662 69.1809 1.80228 69.4149 1.83912 69.6608C1.88533 69.9693 2.00278 70.2318 2.19148 70.4483C2.38017 70.6648 2.62977 70.8278 2.94027 70.9371L2.82206 71.4824C2.55422 71.4124 2.31486 71.2948 2.10397 71.1295C1.89309 70.9643 1.72023 70.7614 1.5854 70.5209C1.45056 70.2804 1.36137 70.0149 1.31784 69.7243Z" fill="#111111"/>
<path d="M2.37009 74.3912L7.04854 73.1546L7.19567 73.705L5.08048 74.264L7.76668 75.841L7.95935 76.5617L5.14938 74.8912L3.34396 78.0342L3.13202 77.2414L4.81691 74.3337L2.51723 74.9415L2.37009 74.3912Z" fill="#111111"/>
<path d="M6.00722 84.885L9.94088 83.1192L9.33212 81.7783L9.81062 81.5635L11.2638 84.7644L10.7853 84.9792L10.1765 83.6383L6.24287 85.4041L6.00722 84.885Z" fill="#111111"/>
<path d="M8.20275 89.2529L12.3792 86.8188L12.6688 87.3101L10.8923 88.3455L12.2507 90.65L14.0272 89.6147L14.3168 90.106L10.1404 92.54L9.85077 92.0487L11.7978 90.914L10.4394 88.6094L8.49236 89.7442L8.20275 89.2529Z" fill="#111111"/>
<path d="M11.8767 95.0506L15.8228 92.2625L16.1545 92.7267L12.2084 95.5148L11.8767 95.0506Z" fill="#111111"/>
<path d="M14.8838 99.0099C14.7197 98.8164 14.6013 98.6082 14.5285 98.3856C14.4557 98.1629 14.4306 97.9386 14.4532 97.7128C14.4758 97.487 14.5488 97.2751 14.6723 97.0771L15.1497 97.3774C15.0276 97.598 14.9769 97.8222 14.9976 98.0501C15.0184 98.278 15.1093 98.487 15.2704 98.6771C15.3964 98.8257 15.5403 98.9341 15.7021 99.0024C15.864 99.0707 16.0265 99.0941 16.1897 99.0727C16.3528 99.0512 16.5004 98.9852 16.6325 98.8745C16.8028 98.7318 16.8936 98.5567 16.905 98.3492C16.9164 98.1416 16.8541 97.9086 16.7183 97.6501L16.5771 97.3783C16.3665 96.9755 16.2764 96.6166 16.3066 96.3017C16.3369 95.9867 16.4789 95.7229 16.7326 95.5103C16.8856 95.3821 17.0497 95.2934 17.2249 95.2441C17.4001 95.1948 17.5785 95.1827 17.7602 95.2078C17.942 95.2328 18.1159 95.2925 18.282 95.3868C18.4481 95.4811 18.5985 95.6077 18.7332 95.7667C18.8914 95.9533 19.0032 96.1537 19.0687 96.3677C19.1342 96.5818 19.1527 96.7983 19.1242 97.0172C19.0958 97.2361 19.0201 97.4413 18.8972 97.633L18.4197 97.3326C18.5454 97.1092 18.6012 96.891 18.5872 96.6781C18.5732 96.4652 18.4916 96.2706 18.3422 96.0944C18.2279 95.9596 18.0999 95.8629 17.9582 95.8044C17.8165 95.7458 17.6746 95.7258 17.5327 95.7442C17.3908 95.7626 17.259 95.8228 17.1374 95.9247C16.9775 96.0587 16.8946 96.2257 16.8887 96.4256C16.8828 96.6256 16.9558 96.8748 17.1076 97.1731L17.2488 97.4449C17.4506 97.8374 17.5292 98.1896 17.4847 98.5018C17.4401 98.814 17.2892 99.0778 17.032 99.2933C16.8686 99.4302 16.6927 99.5259 16.5041 99.5805C16.3156 99.6351 16.1256 99.6494 15.9343 99.6235C15.743 99.5977 15.5574 99.533 15.3776 99.4295C15.1977 99.3261 15.0331 99.1862 14.8838 99.0099ZM20.4573 104.592L23.6391 100.964L24.8055 101.976C25.0351 102.175 25.2009 102.384 25.303 102.605C25.4051 102.825 25.4404 103.045 25.4086 103.263C25.3769 103.482 25.2789 103.685 25.1146 103.872C24.9592 104.049 24.7805 104.167 24.5783 104.225C24.3762 104.284 24.1634 104.282 23.9401 104.221C24.0859 104.467 24.1451 104.719 24.1177 104.977C24.0904 105.236 23.9811 105.474 23.7899 105.692C23.6076 105.899 23.3987 106.035 23.1629 106.097C22.9272 106.159 22.6794 106.151 22.4195 106.073C22.1596 105.995 21.9029 105.845 21.6494 105.626L20.4573 104.592ZM23.7346 101.722L22.7173 102.881L23.4316 103.501C23.6577 103.697 23.874 103.798 24.0805 103.803C24.2871 103.808 24.4725 103.717 24.6368 103.53C24.8011 103.342 24.8657 103.145 24.8305 102.937C24.7953 102.73 24.6681 102.531 24.4489 102.341L23.7346 101.722ZM21.225 104.583L21.9752 105.234C22.2322 105.456 22.4834 105.572 22.7288 105.581C22.9743 105.59 23.1881 105.491 23.3704 105.283C23.5556 105.072 23.6287 104.846 23.5896 104.605C23.5505 104.364 23.4008 104.131 23.1404 103.905L22.3902 103.254L21.225 104.583ZM26.6207 109.591C26.3824 109.425 26.1941 109.238 26.0558 109.028C25.9175 108.819 25.8303 108.594 25.7942 108.354C25.7581 108.113 25.7748 107.867 25.8443 107.615C25.9138 107.363 26.0358 107.112 26.2105 106.864L27.9117 104.448L28.3808 104.775L26.6914 107.174C26.5141 107.426 26.4056 107.675 26.366 107.92C26.3263 108.166 26.3531 108.395 26.4466 108.609C26.54 108.823 26.7003 109.009 26.9274 109.168C27.1546 109.326 27.3852 109.412 27.6195 109.426C27.8537 109.44 28.08 109.387 28.2984 109.266C28.5168 109.144 28.7147 108.958 28.892 108.706L30.5814 106.307L31.0505 106.634L29.3494 109.05C29.1747 109.298 28.9798 109.496 28.7645 109.644C28.5493 109.792 28.3219 109.89 28.0825 109.939C27.843 109.987 27.5991 109.983 27.3507 109.926C27.1024 109.869 26.859 109.757 26.6207 109.591Z" fill="#111111"/>
<path d="M31.9702 112.709L34.0418 108.944L32.7439 108.238L32.9959 107.78L36.0942 109.466L35.8422 109.924L34.5443 109.218L32.4726 112.983L31.9702 112.709Z" fill="#111111"/>
<path d="M37.5938 115.395L39.2591 111.436L37.8941 110.868L38.0967 110.386L41.355 111.741L41.1524 112.223L39.7874 111.655L38.1222 115.615L37.5938 115.395Z" fill="#111111"/>
<path d="M42.46 114.663C42.5435 114.381 42.6589 114.127 42.8063 113.902C42.9537 113.676 43.1251 113.482 43.3207 113.318C43.5163 113.153 43.7293 113.026 43.9598 112.936C44.1904 112.846 44.4327 112.795 44.6869 112.785C44.9411 112.775 45.2012 112.808 45.4672 112.886C45.7942 112.982 46.0774 113.13 46.3167 113.33C46.5561 113.529 46.7446 113.769 46.8825 114.047C47.0203 114.325 47.1008 114.629 47.124 114.959C47.1471 115.288 47.106 115.631 47.0007 115.986C46.9171 116.268 46.8017 116.522 46.6543 116.747C46.5069 116.973 46.3355 117.167 46.1399 117.331C45.9444 117.496 45.7313 117.623 45.5008 117.713C45.2703 117.803 45.0279 117.854 44.7737 117.864C44.5195 117.874 44.2594 117.841 43.9934 117.763C43.6664 117.667 43.3832 117.519 43.1439 117.319C42.9046 117.12 42.716 116.88 42.5781 116.602C42.4403 116.324 42.3598 116.02 42.3366 115.69C42.3135 115.361 42.3546 115.018 42.46 114.663ZM43.0243 114.821C42.9408 115.103 42.9062 115.375 42.9205 115.639C42.9349 115.902 42.9927 116.143 43.0939 116.361C43.1951 116.579 43.3351 116.766 43.5139 116.922C43.6927 117.078 43.9064 117.193 44.1549 117.266C44.4034 117.339 44.6454 117.358 44.8808 117.323C45.1161 117.288 45.3358 117.207 45.5398 117.078C45.7438 116.949 45.9237 116.778 46.0794 116.565C46.2351 116.351 46.3547 116.103 46.4382 115.822C46.5217 115.54 46.556 115.268 46.541 115.007C46.526 114.746 46.468 114.506 46.3668 114.288C46.2656 114.07 46.1255 113.883 45.9467 113.727C45.7679 113.571 45.5542 113.456 45.3057 113.383C45.0572 113.31 44.8152 113.291 44.5799 113.326C44.3445 113.361 44.1248 113.442 43.9208 113.571C43.7168 113.7 43.5373 113.87 43.3822 114.081C43.2271 114.293 43.1079 114.539 43.0243 114.821Z" fill="#111111"/>
<path d="M49.1362 118.882L49.9547 114.138L50.452 114.222L52.4572 118.478L53.1131 114.676L53.6642 114.77L52.8457 119.515L52.3484 119.43L50.3432 115.174L49.6872 118.976L49.1362 118.882Z" fill="#111111"/>
</svg>
